<svg xmlns="http://www.w3.org/2000/svg" xmlns:xlink="http://www.w3.org/1999/xlink" width="500" zoomAndPan="magnify" viewBox="0 0 375 374.999991" height="500" preserveAspectRatio="xMidYMid meet" version="1.0"><defs><g/><clipPath id="2e197d7d37"><path d="M 42 90.039062 L 337.5 90.039062 L 337.5 198 L 42 198 Z M 42 90.039062 " clip-rule="nonzero"/></clipPath></defs><g clip-path="url(#2e197d7d37)"><path fill="#c6ffad" d="M 276.558594 183.777344 C 277.210938 179.648438 279.296875 167.886719 282.566406 163.09375 C 282.566406 163.09375 283.667969 167.632812 279.613281 184.371094 C 279.503906 184.820312 280.039062 185.140625 280.378906 184.832031 C 297.304688 169.390625 284.367188 152.082031 284.367188 152.082031 C 284.367188 152.082031 265.847656 163.171875 275.675781 183.90625 C 275.871094 184.316406 276.484375 184.230469 276.558594 183.777344 Z M 285.425781 190.234375 C 291.789062 186.667969 310.183594 176.8125 320.296875 176.144531 C 320.296875 176.144531 315.269531 182.578125 287.917969 195.097656 C 287.1875 195.433594 287.324219 196.515625 288.121094 196.648438 C 327.617188 203.296875 337.34375 166.707031 337.34375 166.707031 C 337.34375 166.707031 302.089844 153.148438 284.296875 189.15625 C 283.941406 189.875 284.726562 190.628906 285.425781 190.234375 Z M 104.371094 121.871094 C 114.199219 101.140625 95.679688 90.050781 95.679688 90.050781 C 95.679688 90.050781 82.742188 107.359375 99.667969 122.792969 C 100.007812 123.101562 100.542969 122.785156 100.433594 122.335938 C 96.375 105.59375 97.480469 101.0625 97.480469 101.0625 C 100.753906 105.851562 102.839844 117.613281 103.492188 121.742188 C 103.5625 122.195312 104.175781 122.285156 104.371094 121.871094 Z M 94.621094 128.203125 C 88.257812 124.636719 69.863281 114.777344 59.753906 114.109375 C 59.753906 114.109375 64.777344 120.539062 92.128906 133.058594 C 92.863281 133.394531 92.722656 134.480469 91.925781 134.613281 C 52.433594 141.265625 42.703125 104.671875 42.703125 104.671875 C 42.703125 104.671875 77.960938 91.117188 95.75 127.121094 C 96.105469 127.84375 95.320312 128.59375 94.621094 128.203125 " fill-opacity="1" fill-rule="nonzero"/></g><path fill="#17415f" d="M 217.402344 185.589844 L 217.402344 178.867188 C 217.402344 178.1875 216.851562 177.636719 216.175781 177.636719 L 209.472656 177.636719 C 208.796875 177.636719 208.25 178.1875 208.25 178.867188 L 208.25 185.589844 C 208.25 186.269531 208.796875 186.820312 209.472656 186.820312 L 216.175781 186.820312 C 216.851562 186.820312 217.402344 186.269531 217.402344 185.589844 Z M 204.863281 185.589844 L 204.863281 178.867188 C 204.863281 178.1875 204.316406 177.636719 203.640625 177.636719 L 196.9375 177.636719 C 196.257812 177.636719 195.710938 178.1875 195.710938 178.867188 L 195.710938 185.589844 C 195.710938 186.269531 196.257812 186.820312 196.9375 186.820312 L 203.640625 186.820312 C 204.316406 186.820312 204.863281 186.269531 204.863281 185.589844 Z M 217.402344 173.539062 L 217.402344 166.816406 C 217.402344 166.136719 216.851562 165.585938 216.175781 165.585938 L 209.472656 165.585938 C 208.796875 165.585938 208.25 166.136719 208.25 166.816406 L 208.25 173.539062 C 208.25 174.21875 208.796875 174.769531 209.472656 174.769531 L 216.175781 174.769531 C 216.851562 174.769531 217.402344 174.21875 217.402344 173.539062 Z M 204.863281 173.539062 L 204.863281 166.816406 C 204.863281 166.136719 204.316406 165.585938 203.640625 165.585938 L 196.9375 165.585938 C 196.257812 165.585938 195.710938 166.136719 195.710938 166.816406 L 195.710938 173.539062 C 195.710938 174.21875 196.257812 174.769531 196.9375 174.769531 L 203.640625 174.769531 C 204.316406 174.769531 204.863281 174.21875 204.863281 173.539062 Z M 126.296875 185.589844 L 126.296875 178.867188 C 126.296875 178.1875 125.746094 177.636719 125.070312 177.636719 L 118.367188 177.636719 C 117.691406 177.636719 117.140625 178.1875 117.140625 178.867188 L 117.140625 185.589844 C 117.140625 186.269531 117.691406 186.820312 118.367188 186.820312 L 125.070312 186.820312 C 125.746094 186.820312 126.296875 186.269531 126.296875 185.589844 Z M 113.757812 185.589844 L 113.757812 178.867188 C 113.757812 178.1875 113.210938 177.636719 112.535156 177.636719 L 105.828125 177.636719 C 105.152344 177.636719 104.605469 178.1875 104.605469 178.867188 L 104.605469 185.589844 C 104.605469 186.269531 105.152344 186.820312 105.828125 186.820312 L 112.535156 186.820312 C 113.210938 186.820312 113.757812 186.269531 113.757812 185.589844 Z M 126.296875 173.539062 L 126.296875 166.816406 C 126.296875 166.136719 125.746094 165.585938 125.070312 165.585938 L 118.367188 165.585938 C 117.691406 165.585938 117.140625 166.136719 117.140625 166.816406 L 117.140625 173.539062 C 117.140625 174.21875 117.691406 174.769531 118.367188 174.769531 L 125.070312 174.769531 C 125.746094 174.769531 126.296875 174.21875 126.296875 173.539062 Z M 113.757812 173.539062 L 113.757812 166.816406 C 113.757812 166.136719 113.210938 165.585938 112.535156 165.585938 L 105.828125 165.585938 C 105.152344 165.585938 104.605469 166.136719 104.605469 166.816406 L 104.605469 173.539062 C 104.605469 174.21875 105.152344 174.769531 105.828125 174.769531 L 112.535156 174.769531 C 113.210938 174.769531 113.757812 174.21875 113.757812 173.539062 Z M 207.992188 124.011719 L 281.660156 196.015625 C 283.636719 197.949219 282.273438 201.3125 279.511719 201.3125 L 264.691406 201.3125 C 263.890625 201.3125 263.121094 201 262.546875 200.4375 L 207.992188 147.117188 C 206.796875 145.949219 204.890625 145.949219 203.695312 147.117188 L 174.726562 175.433594 C 173.488281 176.640625 173.488281 178.640625 174.726562 179.855469 L 191.261719 196.015625 C 193.242188 197.949219 191.878906 201.3125 189.117188 201.3125 L 174.296875 201.3125 C 173.496094 201.3125 172.726562 201 172.152344 200.4375 L 160.644531 189.191406 L 148.828125 177.644531 L 117.597656 147.117188 C 116.402344 145.949219 114.496094 145.949219 113.300781 147.117188 L 58.746094 200.4375 C 58.171875 201 57.402344 201.3125 56.601562 201.3125 L 41.78125 201.3125 C 39.023438 201.3125 37.65625 197.949219 39.636719 196.015625 L 113.300781 124.011719 C 114.496094 122.84375 116.402344 122.84375 117.597656 124.011719 L 158.5 163.992188 C 159.695312 165.15625 161.597656 165.15625 162.792969 163.992188 L 203.695312 124.011719 C 204.890625 122.84375 206.796875 122.84375 207.992188 124.011719 " fill-opacity="1" fill-rule="nonzero"/><g fill="#17415f" fill-opacity="1"><g transform="translate(92.970298, 256.568765)"><g><path d="M 2.453125 -0.703125 L 2.453125 -32.21875 C 2.453125 -33.070312 2.296875 -33.679688 1.984375 -34.046875 C 1.671875 -34.421875 1.109375 -34.609375 0.296875 -34.609375 C 0.253906 -35.617188 0.523438 -36.414062 1.109375 -37 C 1.691406 -37.582031 2.625 -37.875 3.90625 -37.875 C 5.1875 -37.875 6.097656 -37.234375 6.640625 -35.953125 C 8.160156 -37.234375 9.710938 -37.875 11.296875 -37.875 C 15.148438 -37.875 17.078125 -35.96875 17.078125 -32.15625 L 17.078125 -17.828125 C 17.078125 -15.890625 16.40625 -14.375 15.0625 -13.28125 C 13.71875 -12.195312 11.898438 -11.65625 9.609375 -11.65625 L 7.046875 -11.65625 L 7.046875 -5.484375 L 7.28125 0 C 5.957031 0.195312 4.65625 0.296875 3.375 0.296875 C 2.757812 0.296875 2.453125 -0.0351562 2.453125 -0.703125 Z M 10.203125 -34.03125 C 9.148438 -34.03125 8.097656 -33.503906 7.046875 -32.453125 L 7.046875 -15.5 L 9.734375 -15.5 C 10.546875 -15.5 11.203125 -15.703125 11.703125 -16.109375 C 12.210938 -16.515625 12.46875 -17.085938 12.46875 -17.828125 L 12.46875 -31.8125 C 12.46875 -33.289062 11.710938 -34.03125 10.203125 -34.03125 Z M 10.203125 -34.03125 "/></g></g></g><g fill="#17415f" fill-opacity="1"><g transform="translate(111.492291, 256.568765)"><g><path d="M 2.15625 -36.125 C 2.15625 -37.019531 1.976562 -38.203125 1.625 -39.671875 C 2.789062 -40.296875 4.035156 -40.609375 5.359375 -40.609375 C 6.140625 -40.609375 6.53125 -40.316406 6.53125 -39.734375 L 6.53125 -4.84375 C 6.53125 -4.019531 6.675781 -3.429688 6.96875 -3.078125 C 7.257812 -2.734375 7.8125 -2.5625 8.625 -2.5625 C 8.664062 -1.550781 8.398438 -0.773438 7.828125 -0.234375 C 7.265625 0.304688 6.441406 0.578125 5.359375 0.578125 C 4.273438 0.578125 3.46875 0.25 2.9375 -0.40625 C 2.414062 -1.0625 2.15625 -2.148438 2.15625 -3.671875 Z M 2.15625 -36.125 "/></g></g></g><g fill="#17415f" fill-opacity="1"><g transform="translate(120.578557, 256.568765)"><g><path d="M 7.75 -10.65625 C 6.46875 -9.800781 5.828125 -8.375 5.828125 -6.375 C 5.828125 -4.375 6.4375 -3.375 7.65625 -3.375 C 8.882812 -3.375 9.847656 -4.078125 10.546875 -5.484375 L 10.546875 -12.53125 Z M 8.390625 -29.140625 C 12.742188 -29.140625 14.921875 -27.210938 14.921875 -23.359375 L 14.921875 -4.84375 C 14.921875 -4.019531 15.066406 -3.429688 15.359375 -3.078125 C 15.648438 -2.734375 16.203125 -2.5625 17.015625 -2.5625 C 17.054688 -1.550781 16.789062 -0.773438 16.21875 -0.234375 C 15.65625 0.304688 14.851562 0.578125 13.8125 0.578125 C 12.175781 0.578125 11.1875 -0.0195312 10.84375 -1.21875 C 9.632812 -0.0195312 8.210938 0.578125 6.578125 0.578125 C 4.953125 0.578125 3.648438 -0.0390625 2.671875 -1.28125 C 1.703125 -2.519531 1.21875 -4.191406 1.21875 -6.296875 C 1.21875 -9.484375 2.5625 -11.890625 5.25 -13.515625 L 10.546875 -16.65625 L 10.546875 -22.953125 C 10.546875 -24.585938 9.773438 -25.40625 8.234375 -25.40625 C 6.703125 -25.40625 5.9375 -24.492188 5.9375 -22.671875 L 5.9375 -20.75 L 6.125 -18 C 5.613281 -17.882812 5.09375 -17.828125 4.5625 -17.828125 C 4.039062 -17.828125 3.550781 -17.90625 3.09375 -18.0625 C 2.15625 -18.289062 1.6875 -18.738281 1.6875 -19.40625 L 1.6875 -24.1875 C 1.6875 -25.738281 2.296875 -26.953125 3.515625 -27.828125 C 4.742188 -28.703125 6.367188 -29.140625 8.390625 -29.140625 Z M 8.390625 -29.140625 "/></g></g></g><g fill="#17415f" fill-opacity="1"><g transform="translate(137.819157, 256.568765)"><g><path d="M 13.046875 -5.890625 C 14.597656 -5.191406 15.375 -4.179688 15.375 -2.859375 C 15.375 -2.429688 15.203125 -2.082031 14.859375 -1.8125 C 13.304688 -0.21875 10.957031 0.578125 7.8125 0.578125 C 3.84375 0.578125 1.859375 -1.59375 1.859375 -5.9375 L 1.859375 -23.421875 C 1.859375 -27.234375 4.113281 -29.140625 8.625 -29.140625 C 10.601562 -29.140625 12.15625 -28.691406 13.28125 -27.796875 C 14.40625 -26.898438 14.96875 -25.695312 14.96875 -24.1875 L 14.96875 -19.40625 C 14.96875 -18.738281 14.503906 -18.289062 13.578125 -18.0625 C 13.109375 -17.90625 12.609375 -17.828125 12.078125 -17.828125 C 11.554688 -17.828125 11.046875 -17.882812 10.546875 -18 C 10.660156 -18.851562 10.71875 -19.769531 10.71875 -20.75 L 10.71875 -22.671875 C 10.71875 -23.640625 10.539062 -24.335938 10.1875 -24.765625 C 9.84375 -25.191406 9.242188 -25.40625 8.390625 -25.40625 C 6.953125 -25.40625 6.234375 -24.800781 6.234375 -23.59375 L 6.234375 -6.640625 C 6.234375 -5.441406 6.425781 -4.566406 6.8125 -4.015625 C 7.207031 -3.472656 7.859375 -3.203125 8.765625 -3.203125 C 9.679688 -3.203125 10.566406 -3.492188 11.421875 -4.078125 C 12.273438 -4.660156 12.816406 -5.265625 13.046875 -5.890625 Z M 13.046875 -5.890625 "/></g></g></g><g fill="#17415f" fill-opacity="1"><g transform="translate(154.12784, 256.568765)"><g><path d="M 10.84375 -22.890625 C 10.84375 -23.671875 10.609375 -24.285156 10.140625 -24.734375 C 9.671875 -25.179688 9.085938 -25.40625 8.390625 -25.40625 C 6.953125 -25.40625 6.234375 -24.800781 6.234375 -23.59375 L 6.234375 -15.265625 L 9.03125 -17.359375 C 10.238281 -18.253906 10.84375 -20.097656 10.84375 -22.890625 Z M 1.859375 -5.1875 L 1.859375 -23.421875 C 1.859375 -27.234375 4.101562 -29.140625 8.59375 -29.140625 C 13.082031 -29.140625 15.328125 -27 15.328125 -22.71875 C 15.328125 -21.007812 15.015625 -19.4375 14.390625 -18 C 13.765625 -16.5625 12.910156 -15.472656 11.828125 -14.734375 L 6.234375 -10.890625 L 6.234375 -5.59375 C 6.234375 -3.957031 7 -3.140625 8.53125 -3.140625 C 10.070312 -3.140625 10.84375 -4.054688 10.84375 -5.890625 L 10.84375 -7.21875 L 10.65625 -9.96875 C 11.164062 -10.082031 11.679688 -10.140625 12.203125 -10.140625 C 12.734375 -10.140625 13.226562 -10.0625 13.6875 -9.90625 C 14.625 -9.675781 15.09375 -9.226562 15.09375 -8.5625 L 15.09375 -4.375 C 15.09375 -2.820312 14.476562 -1.609375 13.25 -0.734375 C 12.03125 0.140625 10.410156 0.578125 8.390625 0.578125 C 4.035156 0.578125 1.859375 -1.34375 1.859375 -5.1875 Z M 1.859375 -5.1875 "/></g></g></g><g fill="#17415f" fill-opacity="1"><g transform="translate(170.727751, 256.568765)"><g/></g></g><g fill="#17415f" fill-opacity="1"><g transform="translate(177.717188, 256.568765)"><g><path d="M 7.21875 -4.78125 C 7.21875 -3.300781 7.351562 -1.742188 7.625 -0.109375 C 6.46875 0.117188 5.207031 0.234375 3.84375 0.234375 C 3.1875 0.234375 2.859375 -0.0546875 2.859375 -0.640625 L 2.859375 -23.890625 L 1.046875 -23.59375 C 0.773438 -24.601562 0.640625 -25.488281 0.640625 -26.25 C 0.640625 -27.007812 0.890625 -27.390625 1.390625 -27.390625 L 2.859375 -27.390625 L 2.859375 -35.015625 C 2.859375 -36.765625 3.378906 -38.160156 4.421875 -39.203125 C 5.472656 -40.253906 7.007812 -40.78125 9.03125 -40.78125 C 11.050781 -40.78125 12.648438 -40.34375 13.828125 -39.46875 C 15.015625 -38.59375 15.609375 -37.378906 15.609375 -35.828125 L 15.609375 -32.859375 C 15.609375 -32.203125 15.144531 -31.738281 14.21875 -31.46875 C 13.75 -31.34375 13.25 -31.28125 12.71875 -31.28125 C 12.195312 -31.28125 11.6875 -31.34375 11.1875 -31.46875 C 11.300781 -32.320312 11.359375 -33.234375 11.359375 -34.203125 L 11.359375 -34.546875 C 11.359375 -35.398438 11.203125 -36.03125 10.890625 -36.4375 C 10.578125 -36.851562 10.023438 -37.0625 9.234375 -37.0625 C 8.441406 -37.0625 7.90625 -36.847656 7.625 -36.421875 C 7.351562 -35.992188 7.21875 -35.332031 7.21875 -34.4375 L 7.21875 -27.390625 L 10.140625 -27.390625 L 13.171875 -27.671875 C 13.359375 -26.660156 13.453125 -25.773438 13.453125 -25.015625 C 13.453125 -24.265625 13.203125 -23.890625 12.703125 -23.890625 L 7.21875 -23.890625 Z M 7.21875 -4.78125 "/></g></g></g><g fill="#17415f" fill-opacity="1"><g transform="translate(192.162022, 256.568765)"><g><path d="M 1.859375 -5.359375 L 1.859375 -22.953125 C 1.859375 -24.898438 2.460938 -26.414062 3.671875 -27.5 C 4.878906 -28.59375 6.507812 -29.140625 8.5625 -29.140625 C 10.625 -29.140625 12.226562 -28.632812 13.375 -27.625 C 14.519531 -26.613281 15.09375 -25.132812 15.09375 -23.1875 L 15.09375 -5.59375 C 15.09375 -3.65625 14.476562 -2.140625 13.25 -1.046875 C 12.03125 0.0351562 10.390625 0.578125 8.328125 0.578125 C 6.273438 0.578125 4.679688 0.0703125 3.546875 -0.9375 C 2.421875 -1.945312 1.859375 -3.421875 1.859375 -5.359375 Z M 6.234375 -23.1875 L 6.234375 -5.359375 C 6.234375 -4.703125 6.445312 -4.148438 6.875 -3.703125 C 7.300781 -3.253906 7.832031 -3.03125 8.46875 -3.03125 C 9.113281 -3.03125 9.648438 -3.253906 10.078125 -3.703125 C 10.503906 -4.148438 10.71875 -4.703125 10.71875 -5.359375 L 10.71875 -23.1875 C 10.71875 -23.851562 10.503906 -24.40625 10.078125 -24.84375 C 9.648438 -25.289062 9.113281 -25.515625 8.46875 -25.515625 C 7.832031 -25.515625 7.300781 -25.289062 6.875 -24.84375 C 6.445312 -24.40625 6.234375 -23.851562 6.234375 -23.1875 Z M 6.234375 -23.1875 "/></g></g></g><g fill="#17415f" fill-opacity="1"><g transform="translate(209.111394, 256.568765)"><g><path d="M 6.9375 -4.78125 C 6.9375 -2.914062 7.070312 -1.359375 7.34375 -0.109375 C 6.175781 0.117188 4.910156 0.234375 3.546875 0.234375 C 2.890625 0.234375 2.5625 -0.0546875 2.5625 -0.640625 L 2.5625 -23.71875 C 2.5625 -24.53125 2.414062 -25.109375 2.125 -25.453125 C 1.832031 -25.804688 1.28125 -25.984375 0.46875 -25.984375 C 0.425781 -26.992188 0.6875 -27.769531 1.25 -28.3125 C 1.8125 -28.863281 2.617188 -29.140625 3.671875 -29.140625 C 5.222656 -29.140625 6.191406 -28.359375 6.578125 -26.796875 C 7.554688 -28.359375 8.9375 -29.140625 10.71875 -29.140625 C 13.90625 -29.140625 15.5 -27.601562 15.5 -24.53125 L 15.5 -18.703125 C 15.5 -18.046875 15.03125 -17.597656 14.09375 -17.359375 C 13.632812 -17.203125 13.140625 -17.125 12.609375 -17.125 C 12.085938 -17.125 11.578125 -17.1875 11.078125 -17.3125 C 11.191406 -18.164062 11.25 -19.078125 11.25 -20.046875 L 11.25 -23.015625 C 11.25 -24.296875 10.664062 -24.9375 9.5 -24.9375 C 8.957031 -24.9375 8.453125 -24.679688 7.984375 -24.171875 C 7.515625 -23.671875 7.164062 -23.109375 6.9375 -22.484375 Z M 6.9375 -4.78125 "/></g></g></g><g fill="#17415f" fill-opacity="1"><g transform="translate(225.420077, 256.568765)"><g/></g></g><g fill="#17415f" fill-opacity="1"><g transform="translate(232.409515, 256.568765)"><g><path d="M 2.15625 -36.125 C 2.15625 -37.019531 1.976562 -38.203125 1.625 -39.671875 C 2.789062 -40.296875 4.035156 -40.609375 5.359375 -40.609375 C 6.140625 -40.609375 6.53125 -40.316406 6.53125 -39.734375 L 6.53125 -4.84375 C 6.53125 -4.019531 6.675781 -3.429688 6.96875 -3.078125 C 7.257812 -2.734375 7.8125 -2.5625 8.625 -2.5625 C 8.664062 -1.550781 8.398438 -0.773438 7.828125 -0.234375 C 7.265625 0.304688 6.441406 0.578125 5.359375 0.578125 C 4.273438 0.578125 3.46875 0.25 2.9375 -0.40625 C 2.414062 -1.0625 2.15625 -2.148438 2.15625 -3.671875 Z M 2.15625 -36.125 "/></g></g></g><g fill="#17415f" fill-opacity="1"><g transform="translate(241.495781, 256.568765)"><g><path d="M 4.71875 -33.859375 C 3.050781 -33.859375 2.21875 -34.960938 2.21875 -37.171875 C 2.21875 -39.390625 3.050781 -40.5 4.71875 -40.5 C 6.382812 -40.5 7.21875 -39.390625 7.21875 -37.171875 C 7.21875 -34.960938 6.382812 -33.859375 4.71875 -33.859375 Z M 1.109375 -28.546875 L 6.9375 -28.546875 L 6.9375 -4.84375 C 6.9375 -4.019531 7.082031 -3.429688 7.375 -3.078125 C 7.664062 -2.734375 8.21875 -2.5625 9.03125 -2.5625 C 9.070312 -1.550781 8.8125 -0.773438 8.25 -0.234375 C 7.6875 0.304688 6.859375 0.578125 5.765625 0.578125 C 4.679688 0.578125 3.875 0.25 3.34375 -0.40625 C 2.820312 -1.0625 2.5625 -2.148438 2.5625 -3.671875 L 2.5625 -25.046875 L 0.75 -24.765625 C 0.476562 -25.773438 0.34375 -26.65625 0.34375 -27.40625 C 0.34375 -28.164062 0.597656 -28.546875 1.109375 -28.546875 Z M 1.109375 -28.546875 "/></g></g></g><g fill="#17415f" fill-opacity="1"><g transform="translate(250.989757, 256.568765)"><g><path d="M 7.21875 -4.78125 C 7.21875 -3.300781 7.351562 -1.742188 7.625 -0.109375 C 6.46875 0.117188 5.207031 0.234375 3.84375 0.234375 C 3.1875 0.234375 2.859375 -0.0546875 2.859375 -0.640625 L 2.859375 -23.890625 L 1.046875 -23.59375 C 0.773438 -24.601562 0.640625 -25.488281 0.640625 -26.25 C 0.640625 -27.007812 0.890625 -27.390625 1.390625 -27.390625 L 2.859375 -27.390625 L 2.859375 -35.015625 C 2.859375 -36.765625 3.378906 -38.160156 4.421875 -39.203125 C 5.472656 -40.253906 7.007812 -40.78125 9.03125 -40.78125 C 11.050781 -40.78125 12.648438 -40.34375 13.828125 -39.46875 C 15.015625 -38.59375 15.609375 -37.378906 15.609375 -35.828125 L 15.609375 -32.859375 C 15.609375 -32.203125 15.144531 -31.738281 14.21875 -31.46875 C 13.75 -31.34375 13.25 -31.28125 12.71875 -31.28125 C 12.195312 -31.28125 11.6875 -31.34375 11.1875 -31.46875 C 11.300781 -32.320312 11.359375 -33.234375 11.359375 -34.203125 L 11.359375 -34.546875 C 11.359375 -35.398438 11.203125 -36.03125 10.890625 -36.4375 C 10.578125 -36.851562 10.023438 -37.0625 9.234375 -37.0625 C 8.441406 -37.0625 7.90625 -36.847656 7.625 -36.421875 C 7.351562 -35.992188 7.21875 -35.332031 7.21875 -34.4375 L 7.21875 -27.390625 L 10.140625 -27.390625 L 13.171875 -27.671875 C 13.359375 -26.660156 13.453125 -25.773438 13.453125 -25.015625 C 13.453125 -24.265625 13.203125 -23.890625 12.703125 -23.890625 L 7.21875 -23.890625 Z M 7.21875 -4.78125 "/></g></g></g><g fill="#17415f" fill-opacity="1"><g transform="translate(265.43459, 256.568765)"><g><path d="M 10.84375 -22.890625 C 10.84375 -23.671875 10.609375 -24.285156 10.140625 -24.734375 C 9.671875 -25.179688 9.085938 -25.40625 8.390625 -25.40625 C 6.953125 -25.40625 6.234375 -24.800781 6.234375 -23.59375 L 6.234375 -15.265625 L 9.03125 -17.359375 C 10.238281 -18.253906 10.84375 -20.097656 10.84375 -22.890625 Z M 1.859375 -5.1875 L 1.859375 -23.421875 C 1.859375 -27.234375 4.101562 -29.140625 8.59375 -29.140625 C 13.082031 -29.140625 15.328125 -27 15.328125 -22.71875 C 15.328125 -21.007812 15.015625 -19.4375 14.390625 -18 C 13.765625 -16.5625 12.910156 -15.472656 11.828125 -14.734375 L 6.234375 -10.890625 L 6.234375 -5.59375 C 6.234375 -3.957031 7 -3.140625 8.53125 -3.140625 C 10.070312 -3.140625 10.84375 -4.054688 10.84375 -5.890625 L 10.84375 -7.21875 L 10.65625 -9.96875 C 11.164062 -10.082031 11.679688 -10.140625 12.203125 -10.140625 C 12.734375 -10.140625 13.226562 -10.0625 13.6875 -9.90625 C 14.625 -9.675781 15.09375 -9.226562 15.09375 -8.5625 L 15.09375 -4.375 C 15.09375 -2.820312 14.476562 -1.609375 13.25 -0.734375 C 12.03125 0.140625 10.410156 0.578125 8.390625 0.578125 C 4.035156 0.578125 1.859375 -1.34375 1.859375 -5.1875 Z M 1.859375 -5.1875 "/></g></g></g><g fill="#17415f" fill-opacity="1"><g transform="translate(106.527816, 282.777433)"><g><path d="M 3.625 -7.953125 C 4.65625 -7.953125 5.578125 -7.679688 6.390625 -7.140625 L 5.84375 -5.96875 C 5.039062 -6.457031 4.269531 -6.703125 3.53125 -6.703125 C 3.132812 -6.703125 2.820312 -6.628906 2.59375 -6.484375 C 2.363281 -6.335938 2.25 -6.132812 2.25 -5.875 C 2.25 -5.613281 2.351562 -5.390625 2.5625 -5.203125 C 2.769531 -5.023438 3.03125 -4.890625 3.34375 -4.796875 C 3.664062 -4.710938 4.007812 -4.601562 4.375 -4.46875 C 4.75 -4.34375 5.09375 -4.203125 5.40625 -4.046875 C 5.71875 -3.898438 5.976562 -3.671875 6.1875 -3.359375 C 6.394531 -3.054688 6.5 -2.679688 6.5 -2.234375 C 6.5 -1.546875 6.222656 -0.992188 5.671875 -0.578125 C 5.117188 -0.160156 4.398438 0.046875 3.515625 0.046875 C 2.921875 0.046875 2.335938 -0.0625 1.765625 -0.28125 C 1.203125 -0.507812 0.710938 -0.816406 0.296875 -1.203125 L 0.875 -2.359375 C 1.269531 -1.992188 1.707031 -1.707031 2.1875 -1.5 C 2.664062 -1.300781 3.117188 -1.203125 3.546875 -1.203125 C 4.003906 -1.203125 4.363281 -1.285156 4.625 -1.453125 C 4.882812 -1.628906 5.015625 -1.867188 5.015625 -2.171875 C 5.015625 -2.441406 4.910156 -2.664062 4.703125 -2.84375 C 4.492188 -3.03125 4.226562 -3.164062 3.90625 -3.25 C 3.59375 -3.34375 3.25 -3.445312 2.875 -3.5625 C 2.507812 -3.6875 2.171875 -3.816406 1.859375 -3.953125 C 1.546875 -4.097656 1.28125 -4.320312 1.0625 -4.625 C 0.851562 -4.9375 0.75 -5.3125 0.75 -5.75 C 0.75 -6.414062 1.007812 -6.945312 1.53125 -7.34375 C 2.0625 -7.75 2.757812 -7.953125 3.625 -7.953125 Z M 3.625 -7.953125 "/></g></g></g><g fill="#17415f" fill-opacity="1"><g transform="translate(113.539931, 282.777433)"><g><path d="M 8.125 -4.03125 C 8.125 -3.195312 7.984375 -2.46875 7.703125 -1.84375 C 7.421875 -1.226562 7.003906 -0.75 6.453125 -0.40625 C 5.898438 -0.0625 5.21875 0.109375 4.40625 0.109375 C 3.570312 0.109375 2.878906 -0.0625 2.328125 -0.40625 C 1.773438 -0.75 1.363281 -1.234375 1.09375 -1.859375 C 0.820312 -2.484375 0.6875 -3.210938 0.6875 -4.046875 C 0.6875 -4.867188 0.820312 -5.585938 1.09375 -6.203125 C 1.363281 -6.828125 1.773438 -7.3125 2.328125 -7.65625 C 2.878906 -8 3.578125 -8.171875 4.421875 -8.171875 C 5.222656 -8.171875 5.898438 -8 6.453125 -7.65625 C 7.003906 -7.320312 7.421875 -6.84375 7.703125 -6.21875 C 7.984375 -5.601562 8.125 -4.875 8.125 -4.03125 Z M 1.765625 -4.03125 C 1.765625 -3.019531 1.976562 -2.222656 2.40625 -1.640625 C 2.832031 -1.054688 3.5 -0.765625 4.40625 -0.765625 C 5.320312 -0.765625 5.988281 -1.054688 6.40625 -1.640625 C 6.832031 -2.222656 7.046875 -3.019531 7.046875 -4.03125 C 7.046875 -5.050781 6.832031 -5.847656 6.40625 -6.421875 C 5.988281 -6.992188 5.328125 -7.28125 4.421875 -7.28125 C 3.503906 -7.28125 2.832031 -6.992188 2.40625 -6.421875 C 1.976562 -5.847656 1.765625 -5.050781 1.765625 -4.03125 Z M 5.671875 -9.90625 C 5.816406 -10.09375 5.9375 -10.265625 6.03125 -10.421875 C 6.132812 -10.578125 6.25 -10.773438 6.375 -11.015625 L 7.359375 -11.015625 L 7.359375 -10.90625 C 7.191406 -10.6875 7.007812 -10.476562 6.8125 -10.28125 C 6.625 -10.09375 6.429688 -9.921875 6.234375 -9.765625 L 5.671875 -9.765625 Z M 6.109375 -8.703125 L 5.5625 -8.703125 C 5.375 -8.816406 5.179688 -8.953125 4.984375 -9.109375 C 4.785156 -9.265625 4.585938 -9.429688 4.390625 -9.609375 C 4.203125 -9.429688 4.007812 -9.265625 3.8125 -9.109375 C 3.613281 -8.953125 3.421875 -8.816406 3.234375 -8.703125 L 2.6875 -8.703125 L 2.6875 -8.828125 C 2.875 -9.035156 3.070312 -9.265625 3.28125 -9.515625 C 3.5 -9.765625 3.695312 -10.019531 3.875 -10.28125 L 4.90625 -10.28125 C 5.082031 -10.019531 5.273438 -9.765625 5.484375 -9.515625 C 5.703125 -9.265625 5.910156 -9.035156 6.109375 -8.828125 Z M 6.109375 -8.703125 "/></g></g></g><g fill="#17415f" fill-opacity="1"><g transform="translate(122.344534, 282.777433)"><g><path d="M 7.890625 0 L 6.578125 0 L 2.375 -5.65625 L 2.375 0 L 1.03125 0 L 1.03125 -7.890625 L 2.34375 -7.890625 L 6.578125 -2.21875 L 6.578125 -7.890625 L 7.890625 -7.890625 Z M 7.890625 0 "/></g></g></g><g fill="#17415f" fill-opacity="1"><g transform="translate(131.273145, 282.777433)"><g><path d="M 6.4375 -3.875 L 7.609375 -3.875 L 7.609375 -0.96875 C 7.203125 -0.65625 6.722656 -0.40625 6.171875 -0.21875 C 5.617188 -0.03125 5.070312 0.0625 4.53125 0.0625 C 3.363281 0.0625 2.378906 -0.320312 1.578125 -1.09375 C 0.785156 -1.863281 0.390625 -2.8125 0.390625 -3.9375 C 0.390625 -5.070312 0.796875 -6.019531 1.609375 -6.78125 C 2.421875 -7.550781 3.421875 -7.9375 4.609375 -7.9375 C 5.171875 -7.9375 5.71875 -7.832031 6.25 -7.625 C 6.789062 -7.425781 7.257812 -7.160156 7.65625 -6.828125 L 6.890625 -5.84375 C 6.242188 -6.445312 5.484375 -6.75 4.609375 -6.75 C 3.804688 -6.75 3.125 -6.476562 2.5625 -5.9375 C 2.007812 -5.394531 1.734375 -4.734375 1.734375 -3.953125 C 1.734375 -3.160156 2.015625 -2.492188 2.578125 -1.953125 C 3.140625 -1.410156 3.820312 -1.140625 4.625 -1.140625 C 5.238281 -1.140625 5.84375 -1.320312 6.4375 -1.6875 Z M 6.4375 -3.875 "/></g></g></g><g fill="#17415f" fill-opacity="1"><g transform="translate(139.716996, 282.777433)"><g/></g></g><g fill="#17415f" fill-opacity="1"><g transform="translate(142.625558, 282.777433)"><g><path d="M 6.4375 -6.703125 L 3.921875 -6.703125 L 3.921875 0 L 2.59375 0 L 2.59375 -6.703125 L 0.09375 -6.703125 L 0.09375 -7.890625 L 6.4375 -7.890625 Z M 6.4375 -6.703125 "/></g></g></g><g fill="#17415f" fill-opacity="1"><g transform="translate(149.152913, 282.777433)"><g><path d="M 7.890625 0 L 6.546875 0 L 6.546875 -3.265625 L 2.375 -3.265625 L 2.375 0 L 1.03125 0 L 1.03125 -7.890625 L 2.375 -7.890625 L 2.375 -4.46875 L 6.546875 -4.46875 L 6.546875 -7.890625 L 7.890625 -7.890625 Z M 7.890625 0 "/></g></g></g><g fill="#17415f" fill-opacity="1"><g transform="translate(158.070251, 282.777433)"><g><path d="M 6.671875 -6.703125 L 2.375 -6.703125 L 2.375 -4.5625 L 6.234375 -4.5625 L 6.234375 -3.375 L 2.375 -3.375 L 2.375 -1.203125 L 6.8125 -1.203125 L 6.8125 0 L 1.03125 0 L 1.03125 -7.890625 L 6.671875 -7.890625 Z M 6.671875 -6.703125 "/></g></g></g><g fill="#17415f" fill-opacity="1"><g transform="translate(165.465675, 282.777433)"><g><path d="M 1.59375 -6.78125 C 2.394531 -7.550781 3.382812 -7.9375 4.5625 -7.9375 C 5.75 -7.9375 6.742188 -7.550781 7.546875 -6.78125 C 8.347656 -6.019531 8.75 -5.070312 8.75 -3.9375 C 8.75 -2.8125 8.347656 -1.863281 7.546875 -1.09375 C 6.742188 -0.320312 5.75 0.0625 4.5625 0.0625 C 3.382812 0.0625 2.394531 -0.320312 1.59375 -1.09375 C 0.789062 -1.863281 0.390625 -2.8125 0.390625 -3.9375 C 0.390625 -5.070312 0.789062 -6.019531 1.59375 -6.78125 Z M 4.578125 -6.734375 C 3.796875 -6.734375 3.125 -6.460938 2.5625 -5.921875 C 2.007812 -5.390625 1.734375 -4.734375 1.734375 -3.953125 C 1.734375 -3.171875 2.015625 -2.503906 2.578125 -1.953125 C 3.140625 -1.410156 3.804688 -1.140625 4.578125 -1.140625 C 5.347656 -1.140625 6.007812 -1.410156 6.5625 -1.953125 C 7.113281 -2.503906 7.390625 -3.171875 7.390625 -3.953125 C 7.390625 -4.734375 7.113281 -5.390625 6.5625 -5.921875 C 6.007812 -6.460938 5.347656 -6.734375 4.578125 -6.734375 Z M 4.578125 -6.734375 "/></g></g></g><g fill="#17415f" fill-opacity="1"><g transform="translate(174.597212, 282.777433)"><g/></g></g><g fill="#17415f" fill-opacity="1"><g transform="translate(177.505774, 282.777433)"><g><path d="M 4.53125 -7.9375 C 5.09375 -7.9375 5.632812 -7.828125 6.15625 -7.609375 C 6.6875 -7.390625 7.144531 -7.09375 7.53125 -6.71875 L 6.75 -5.734375 C 6.46875 -6.046875 6.128906 -6.289062 5.734375 -6.46875 C 5.347656 -6.65625 4.957031 -6.75 4.5625 -6.75 C 3.769531 -6.75 3.097656 -6.476562 2.546875 -5.9375 C 2.003906 -5.40625 1.734375 -4.75 1.734375 -3.96875 C 1.734375 -3.1875 2.003906 -2.523438 2.546875 -1.984375 C 3.097656 -1.453125 3.769531 -1.1875 4.5625 -1.1875 C 5.375 -1.1875 6.101562 -1.5 6.75 -2.125 L 7.546875 -1.234375 C 7.140625 -0.835938 6.664062 -0.519531 6.125 -0.28125 C 5.582031 -0.0507812 5.035156 0.0625 4.484375 0.0625 C 3.328125 0.0625 2.351562 -0.320312 1.5625 -1.09375 C 0.78125 -1.863281 0.390625 -2.816406 0.390625 -3.953125 C 0.390625 -5.078125 0.785156 -6.019531 1.578125 -6.78125 C 2.378906 -7.550781 3.363281 -7.9375 4.53125 -7.9375 Z M 4.53125 -7.9375 "/></g></g></g><g fill="#17415f" fill-opacity="1"><g transform="translate(185.363401, 282.777433)"><g><path d="M 4.5625 -8.75 L 3.40625 -8.75 L 4.609375 -10.421875 L 5.9375 -9.859375 Z M 6.140625 -1.78125 L 2.15625 -1.78125 L 1.40625 0 L 0.015625 0 L 3.5 -7.890625 L 4.859375 -7.890625 L 8.3125 0 L 6.890625 0 Z M 5.625 -2.96875 L 4.140625 -6.46875 L 2.65625 -2.96875 Z M 5.625 -2.96875 "/></g></g></g><g fill="#17415f" fill-opacity="1"><g transform="translate(193.683244, 282.777433)"><g><path d="M 4.53125 -7.9375 C 5.09375 -7.9375 5.632812 -7.828125 6.15625 -7.609375 C 6.6875 -7.390625 7.144531 -7.09375 7.53125 -6.71875 L 6.75 -5.734375 C 6.46875 -6.046875 6.128906 -6.289062 5.734375 -6.46875 C 5.347656 -6.65625 4.957031 -6.75 4.5625 -6.75 C 3.769531 -6.75 3.097656 -6.476562 2.546875 -5.9375 C 2.003906 -5.40625 1.734375 -4.75 1.734375 -3.96875 C 1.734375 -3.1875 2.003906 -2.523438 2.546875 -1.984375 C 3.097656 -1.453125 3.769531 -1.1875 4.5625 -1.1875 C 5.375 -1.1875 6.101562 -1.5 6.75 -2.125 L 7.546875 -1.234375 C 7.140625 -0.835938 6.664062 -0.519531 6.125 -0.28125 C 5.582031 -0.0507812 5.035156 0.0625 4.484375 0.0625 C 3.328125 0.0625 2.351562 -0.320312 1.5625 -1.09375 C 0.78125 -1.863281 0.390625 -2.816406 0.390625 -3.953125 C 0.390625 -5.078125 0.785156 -6.019531 1.578125 -6.78125 C 2.378906 -7.550781 3.363281 -7.9375 4.53125 -7.9375 Z M 4.53125 -7.9375 "/></g></g></g><g fill="#17415f" fill-opacity="1"><g transform="translate(201.540872, 282.777433)"><g><path d="M 7.890625 0 L 6.546875 0 L 6.546875 -3.265625 L 2.375 -3.265625 L 2.375 0 L 1.03125 0 L 1.03125 -7.890625 L 2.375 -7.890625 L 2.375 -4.46875 L 6.546875 -4.46875 L 6.546875 -7.890625 L 7.890625 -7.890625 Z M 7.890625 0 "/></g></g></g><g fill="#17415f" fill-opacity="1"><g transform="translate(210.45821, 282.777433)"><g/></g></g><g fill="#17415f" fill-opacity="1"><g transform="translate(213.366772, 282.777433)"><g><path d="M 4.53125 -7.9375 C 5.09375 -7.9375 5.632812 -7.828125 6.15625 -7.609375 C 6.6875 -7.390625 7.144531 -7.09375 7.53125 -6.71875 L 6.75 -5.734375 C 6.46875 -6.046875 6.128906 -6.289062 5.734375 -6.46875 C 5.347656 -6.65625 4.957031 -6.75 4.5625 -6.75 C 3.769531 -6.75 3.097656 -6.476562 2.546875 -5.9375 C 2.003906 -5.40625 1.734375 -4.75 1.734375 -3.96875 C 1.734375 -3.1875 2.003906 -2.523438 2.546875 -1.984375 C 3.097656 -1.453125 3.769531 -1.1875 4.5625 -1.1875 C 5.375 -1.1875 6.101562 -1.5 6.75 -2.125 L 7.546875 -1.234375 C 7.140625 -0.835938 6.664062 -0.519531 6.125 -0.28125 C 5.582031 -0.0507812 5.035156 0.0625 4.484375 0.0625 C 3.328125 0.0625 2.351562 -0.320312 1.5625 -1.09375 C 0.78125 -1.863281 0.390625 -2.816406 0.390625 -3.953125 C 0.390625 -5.078125 0.785156 -6.019531 1.578125 -6.78125 C 2.378906 -7.550781 3.363281 -7.9375 4.53125 -7.9375 Z M 4.53125 -7.9375 "/></g></g></g><g fill="#17415f" fill-opacity="1"><g transform="translate(221.224399, 282.777433)"><g><path d="M 7.21875 -8.0625 L 7.21875 -2.84375 C 7.21875 -2.289062 7.101562 -1.789062 6.875 -1.34375 C 6.65625 -0.894531 6.3125 -0.539062 5.84375 -0.28125 C 5.375 -0.0195312 4.785156 0.109375 4.078125 0.109375 C 3.078125 0.109375 2.316406 -0.160156 1.796875 -0.703125 C 1.273438 -1.242188 1.015625 -1.960938 1.015625 -2.859375 L 1.015625 -8.0625 L 2.03125 -8.0625 L 2.03125 -2.828125 C 2.03125 -2.171875 2.203125 -1.660156 2.546875 -1.296875 C 2.898438 -0.941406 3.429688 -0.765625 4.140625 -0.765625 C 4.867188 -0.765625 5.394531 -0.957031 5.71875 -1.34375 C 6.050781 -1.726562 6.21875 -2.226562 6.21875 -2.84375 L 6.21875 -8.0625 Z M 5.34375 -10.09375 C 5.34375 -9.8125 5.253906 -9.59375 5.078125 -9.4375 C 4.910156 -9.28125 4.695312 -9.171875 4.4375 -9.109375 L 4.375 -8.515625 L 3.765625 -8.515625 L 3.6875 -9.46875 C 3.957031 -9.519531 4.171875 -9.585938 4.328125 -9.671875 C 4.492188 -9.753906 4.578125 -9.882812 4.578125 -10.0625 C 4.578125 -10.238281 4.507812 -10.359375 4.375 -10.421875 C 4.238281 -10.484375 4.0625 -10.515625 3.84375 -10.515625 C 3.75 -10.515625 3.648438 -10.507812 3.546875 -10.5 C 3.441406 -10.488281 3.363281 -10.476562 3.3125 -10.46875 L 3.3125 -11.046875 C 3.445312 -11.097656 3.648438 -11.125 3.921875 -11.125 C 4.378906 -11.125 4.726562 -11.035156 4.96875 -10.859375 C 5.21875 -10.691406 5.34375 -10.4375 5.34375 -10.09375 Z M 5.34375 -10.09375 "/></g></g></g><g fill="#17415f" fill-opacity="1"><g transform="translate(229.465334, 282.777433)"><g><path d="M 6.140625 -1.78125 L 2.15625 -1.78125 L 1.40625 0 L 0.015625 0 L 3.5 -7.890625 L 4.859375 -7.890625 L 8.3125 0 L 6.890625 0 Z M 5.625 -2.96875 L 4.140625 -6.46875 L 2.65625 -2.96875 Z M 5.625 -2.96875 "/></g></g></g><g fill="#17415f" fill-opacity="1"><g transform="translate(237.785177, 282.777433)"><g/></g></g><g fill="#17415f" fill-opacity="1"><g transform="translate(240.693739, 282.777433)"><g><path d="M 1.03125 -7.890625 L 4.46875 -7.890625 C 5.289062 -7.890625 5.9375 -7.710938 6.40625 -7.359375 C 6.882812 -7.015625 7.125 -6.535156 7.125 -5.921875 C 7.125 -5.472656 7 -5.09375 6.75 -4.78125 C 6.5 -4.476562 6.160156 -4.269531 5.734375 -4.15625 C 6.253906 -4.070312 6.664062 -3.851562 6.96875 -3.5 C 7.269531 -3.144531 7.421875 -2.703125 7.421875 -2.171875 C 7.421875 -1.492188 7.164062 -0.960938 6.65625 -0.578125 C 6.144531 -0.191406 5.441406 0 4.546875 0 L 1.03125 0 Z M 2.375 -6.71875 L 2.375 -4.625 L 4.40625 -4.625 C 4.820312 -4.625 5.148438 -4.71875 5.390625 -4.90625 C 5.628906 -5.09375 5.75 -5.351562 5.75 -5.6875 C 5.75 -6.019531 5.628906 -6.273438 5.390625 -6.453125 C 5.160156 -6.628906 4.832031 -6.71875 4.40625 -6.71875 Z M 2.375 -3.453125 L 2.375 -1.1875 L 4.40625 -1.1875 C 4.925781 -1.1875 5.332031 -1.285156 5.625 -1.484375 C 5.914062 -1.679688 6.0625 -1.960938 6.0625 -2.328125 C 6.0625 -2.679688 5.910156 -2.957031 5.609375 -3.15625 C 5.316406 -3.351562 4.914062 -3.453125 4.40625 -3.453125 Z M 2.375 -3.453125 "/></g></g></g><g fill="#17415f" fill-opacity="1"><g transform="translate(248.652829, 282.777433)"><g><path d="M 6.140625 0 L 5.171875 -2.5 L 1.984375 -2.5 L 1.03125 0 L 0 0 L 3.140625 -8.09375 L 4.0625 -8.09375 L 7.203125 0 Z M 4.875 -3.390625 L 3.96875 -5.828125 C 3.945312 -5.890625 3.910156 -6 3.859375 -6.15625 C 3.804688 -6.3125 3.753906 -6.472656 3.703125 -6.640625 C 3.648438 -6.816406 3.613281 -6.953125 3.59375 -7.046875 C 3.53125 -6.804688 3.46875 -6.578125 3.40625 -6.359375 C 3.34375 -6.140625 3.285156 -5.960938 3.234375 -5.828125 L 2.328125 -3.390625 Z M 3.640625 1.984375 C 3.484375 1.984375 3.347656 1.929688 3.234375 1.828125 C 3.117188 1.722656 3.0625 1.566406 3.0625 1.359375 C 3.0625 1.140625 3.117188 0.976562 3.234375 0.875 C 3.347656 0.769531 3.484375 0.71875 3.640625 0.71875 C 3.796875 0.71875 3.929688 0.769531 4.046875 0.875 C 4.171875 0.976562 4.234375 1.140625 4.234375 1.359375 C 4.234375 1.566406 4.171875 1.722656 4.046875 1.828125 C 3.929688 1.929688 3.796875 1.984375 3.640625 1.984375 Z M 3.640625 1.984375 "/></g></g></g><g fill="#17415f" fill-opacity="1"><g transform="translate(255.856601, 282.777433)"><g><path d="M 7.890625 0 L 6.578125 0 L 2.375 -5.65625 L 2.375 0 L 1.03125 0 L 1.03125 -7.890625 L 2.34375 -7.890625 L 6.578125 -2.21875 L 6.578125 -7.890625 L 7.890625 -7.890625 Z M 7.890625 0 "/></g></g></g></svg>